<?xml version="1.0" encoding="utf-8"?>
<!-- Generator: Adobe Illustrator 23.0.1, SVG Export Plug-In . SVG Version: 6.00 Build 0)  -->
<svg version="1.1" id="Слой_1" xmlns="http://www.w3.org/2000/svg" xmlns:xlink="http://www.w3.org/1999/xlink" x="0px" y="0px"
	 viewBox="0 0 214.5 39.1" style="enable-background:new 0 0 214.5 39.1;" xml:space="preserve">
<style type="text/css">
	.st0{fill:#3699FF;}
</style>
<title>special-vehiclesРесурс 1</title>
<g>
	<g id="Layer_1">
		<path class="st0" d="M46.3,27.2L46.3,27.2L46.3,27.2l-0.1-0.1L29.9,4l-0.2-0.3l-0.1-0.2l0,0c-3-3.9-8.7-4.7-12.6-1.7
			c-0.7,0.5-1.3,1.2-1.8,1.9l0,0L1.9,22.3l0,0c-1.2,1.8-1.9,3.9-1.9,6c0.1,6,5,10.7,11,10.6c3.7-0.1,7.1-2,9-5.1h12.6
			c1.4,4,5.9,6.1,9.9,4.6c3-1.1,5-3.9,5.1-7.1C47.6,29.9,47.1,28.4,46.3,27.2z M22.4,5c2.1,0,3.8,1.8,3.8,3.9c0,2.1-1.8,3.8-3.9,3.8
			c-2.1,0-3.8-1.7-3.8-3.8C18.5,6.7,20.2,5,22.4,5C22.4,5,22.4,5,22.4,5z M10.8,34c-3.1,0-5.6-2.6-5.6-5.7c0-3.1,2.6-5.6,5.7-5.6
			c3.1,0,5.6,2.5,5.6,5.6C16.5,31.5,13.9,34,10.8,34C10.8,34,10.8,34,10.8,34z M11.2,17.7l3.3-4.6c2.4,4.3,7.9,5.9,12.2,3.5
			c1.5-0.8,2.7-2,3.5-3.5L38,24c-2.5,0.6-4.6,2.5-5.4,5h-11c0-0.2,0-0.4,0-0.6C21.6,22.7,17,17.9,11.2,17.7L11.2,17.7z M39.9,34.1
			c-1.5,0-2.7-1.3-2.7-2.8c0-1.5,1.3-2.7,2.8-2.7c1.5,0,2.7,1.2,2.7,2.7C42.6,32.9,41.4,34.2,39.9,34.1
			C39.9,34.1,39.9,34.1,39.9,34.1z"/>
		<path d="M137.5,27.3c0,4.2-2.9,7-7.4,7c-4.8,0-7.6-3.3-7.6-8.7c0-6,2.6-9.5,7.8-10.8l5-1.3V18l-5,1.3c-1.9,0.5-3,1.4-3.4,2.6
			c2.9-2.2,7-1.7,9.2,1.2C137,24.3,137.5,25.8,137.5,27.3L137.5,27.3z M132.9,27.2c0.1-1.6-1.1-2.9-2.7-3c-1.6-0.1-2.9,1.1-3,2.7
			c0,0.1,0,0.2,0,0.3c-0.1,1.6,1.1,2.9,2.7,3c1.6,0.1,2.9-1.1,3-2.7C132.9,27.5,132.9,27.4,132.9,27.2z M64.4,31h6.2l1,2.9H77
			l-7.1-18.1h-4.7l-6.9,18.1h5.2L64.4,31z M65.6,27.1l1.9-5.6l1.9,5.6H65.6z M86.4,33.9c2.6,0,4.4-1.7,4.4-4
			c0.1-1.5-0.9-2.8-2.3-3.4c1.1-0.6,1.8-1.7,1.8-3c0-2.1-1.7-3.5-4.1-3.5h-7.8v13.8L86.4,33.9z M82.8,23h2.1c0.6-0.1,1.2,0.4,1.2,1
			c0,0.1,0,0.1,0,0.2c0,0.6-0.5,1.2-1.1,1.2c0,0-0.1,0-0.1,0h-2.1V23z M85,28.2c0.7,0,1.2,0.5,1.2,1.2c0,0.7-0.5,1.2-1.2,1.2
			c0,0,0,0,0,0h-2.2v-2.5H85z M104.8,24.1h-4.3v9.8H96v-9.8h-4.3V20h13.1L104.8,24.1z M113.2,19.5c-4-0.2-7.4,2.9-7.6,6.9
			c0,0.2,0,0.4,0,0.6c0,4.2,3.4,7.6,7.6,7.6s7.6-3.4,7.6-7.6c0.1-4-3-7.4-7-7.5C113.6,19.5,113.5,19.5,113.2,19.5L113.2,19.5z
			 M113.2,23.8c1.6,0,2.9,1.3,3,2.9c0,0.1,0,0.2,0,0.3c0.1,1.6-1.1,3-2.7,3.2c-1.6,0.1-3-1.1-3.2-2.7c0-0.2,0-0.3,0-0.5
			c-0.1-1.6,1-3,2.6-3.1C113.1,23.8,113.2,23.8,113.2,23.8L113.2,23.8z M152.4,33.9V20h-2.7l-5.5,6.2V20h-4.5v13.9h2.7l5.5-6.3v6.3
			L152.4,33.9z M164.3,26.5c1.3,0.6,2.1,2,2,3.4c0,2.8-2.7,4.5-6,4.5c-3.5,0-6-1.9-6.1-5.1h4.3c0,0.8,0.7,1.5,1.5,1.5
			c0,0,0.1,0,0.1,0c0.9,0,1.5-0.5,1.5-1.2s-0.5-1.3-1.6-1.3h-1.4v-3h1.5c0.9,0,1.4-0.5,1.4-1.1s-0.5-1.1-1.3-1.1
			c-0.7-0.1-1.4,0.5-1.4,1.2c0,0,0,0,0,0h-4.2c0.1-2.9,2.6-4.6,5.8-4.6s5.6,1.7,5.6,4.2C165.9,24.9,165.3,25.9,164.3,26.5z
			 M181.5,33.9V20h-4.7v4.8h-3.7V20h-4.6v13.9h4.6V29h3.7v4.9H181.5z M198.4,26.8c0,0.4,0,0.8-0.1,1.3h-10.1
			c0.1,1.4,1.3,2.5,2.8,2.4c1,0,1.9-0.4,2.4-1.3h4.6c-1.3,3.9-5.4,6-9.3,4.8c-3.1-1-5.1-3.8-5.1-7c0-4.1,3.2-7.4,7.3-7.5
			C195,19.5,198.4,22.7,198.4,26.8L198.4,26.8z M188.3,25.4h5.5c-0.3-1.3-1.5-2.2-2.8-2.1C189.7,23.2,188.6,24.2,188.3,25.4
			L188.3,25.4z M199.8,26.9c-0.1,4,3,7.3,7,7.4c0.2,0,0.3,0,0.5,0l0,0c3.7,0.1,6.9-2.7,7.2-6.4h-4.6c-0.3,1.2-1.4,2-2.7,2
			c-1.6,0-2.8-1.4-2.8-2.9c0,0,0,0,0-0.1c-0.1-1.6,1-3,2.6-3.1c0.1,0,0.1,0,0.2,0c1.2,0,2.3,0.7,2.6,1.9h4.6
			c-0.4-3.6-3.5-6.3-7.2-6.2c-3.9-0.2-7.3,2.8-7.5,6.8C199.8,26.6,199.8,26.8,199.8,26.9L199.8,26.9z"/>
	</g>
</g>
</svg>
