<?xml version="1.0" standalone="no"?>
<!DOCTYPE svg PUBLIC "-//W3C//DTD SVG 20010904//EN"
 "http://www.w3.org/TR/2001/REC-SVG-20010904/DTD/svg10.dtd">
<svg version="1.0" xmlns="http://www.w3.org/2000/svg"
 width="768.000000pt" height="768.000000pt" viewBox="0 0 768.000000 768.000000"
 preserveAspectRatio="xMidYMid meet">
<metadata>
Created by potrace 1.11, written by Peter Selinger 2001-2013
</metadata>
<g transform="translate(0.000000,768.000000) scale(0.100000,-0.100000)"
fill="#000000" stroke="none">
<path d="M3400 6953 c-138 -21 -296 -67 -410 -119 -88 -41 -230 -124 -230
-136 0 -4 -5 -8 -11 -8 -21 0 -142 -109 -223 -200 -23 -26 -172 -229 -236
-320 -8 -12 -42 -59 -75 -105 -33 -46 -66 -91 -73 -102 -7 -10 -64 -90 -127
-178 -63 -88 -120 -168 -127 -178 -7 -11 -29 -41 -48 -67 -19 -26 -42 -58 -50
-70 -8 -12 -38 -54 -67 -94 -28 -39 -62 -86 -75 -104 -13 -18 -33 -46 -45 -62
-13 -15 -23 -32 -23 -38 0 -6 -4 -12 -8 -14 -4 -1 -45 -55 -89 -118 -45 -63
-86 -119 -90 -125 -5 -5 -29 -39 -53 -75 -25 -36 -49 -69 -53 -75 -4 -5 -26
-35 -48 -65 -21 -30 -43 -59 -47 -65 -4 -5 -23 -32 -42 -60 -19 -27 -38 -54
-42 -60 -11 -13 -78 -106 -98 -135 -8 -12 -37 -53 -65 -91 -27 -38 -66 -92
-85 -120 -19 -28 -40 -56 -45 -62 -6 -7 -18 -25 -28 -40 -10 -16 -25 -36 -32
-45 -8 -9 -109 -150 -224 -312 -115 -162 -214 -300 -219 -305 -20 -23 -125
-208 -148 -262 -14 -32 -30 -67 -35 -78 -15 -35 -47 -128 -64 -186 -47 -167
-62 -285 -60 -459 2 -144 11 -224 40 -355 3 -11 7 -29 9 -40 2 -11 9 -32 15
-47 6 -16 7 -28 4 -28 -4 0 -2 -5 5 -12 7 -7 12 -19 12 -27 0 -9 7 -29 15 -45
8 -15 15 -34 15 -41 0 -24 107 -228 162 -309 29 -44 58 -86 63 -95 41 -61 226
-249 310 -314 33 -25 67 -52 76 -59 9 -7 27 -19 40 -27 51 -31 204 -117 211
-120 4 -1 31 -12 60 -25 29 -13 71 -29 93 -36 22 -7 46 -17 53 -23 6 -5 12 -7
12 -3 0 3 12 1 28 -5 33 -13 57 -19 157 -38 117 -23 218 -33 335 -34 73 -1
239 11 250 18 3 1 28 6 55 9 52 7 243 54 260 65 6 3 13 6 18 7 4 1 9 3 12 4 3
1 8 3 13 5 4 1 20 7 35 13 16 7 30 12 33 12 23 0 299 152 352 194 175 139 284
250 384 389 62 87 73 97 101 98 40 1 1934 1 1963 0 16 -1 26 -13 39 -48 26
-70 93 -190 139 -252 23 -29 46 -61 51 -69 20 -31 142 -145 215 -200 116 -88
271 -163 420 -202 61 -17 83 -20 190 -35 14 -1 30 -4 35 -5 6 -1 13 -2 17 -1
4 0 65 3 136 5 72 2 134 6 140 10 5 3 27 8 48 12 61 9 209 61 292 102 134 66
251 150 341 246 25 27 51 54 58 61 22 23 143 194 143 203 0 5 11 29 25 53 20
37 94 229 94 244 0 3 4 29 10 58 31 154 33 280 7 422 -23 122 -124 373 -172
426 -8 8 -14 21 -14 27 0 7 -4 12 -8 12 -7 0 -131 170 -167 229 -5 9 -12 18
-15 21 -7 7 -452 636 -465 657 -5 10 -15 23 -22 30 -6 7 -21 29 -34 50 -13 21
-26 40 -29 43 -6 5 -89 123 -270 380 -60 85 -114 160 -120 167 -5 7 -10 16
-10 22 0 5 -3 11 -8 13 -4 2 -45 57 -91 123 -47 66 -88 122 -93 123 -4 2 -8 8
-8 13 0 9 -24 46 -57 88 -7 9 -109 153 -227 321 -118 168 -219 310 -225 317
-6 7 -11 15 -11 18 0 3 -5 11 -10 18 -19 22 -76 102 -135 187 -32 47 -62 87
-67 88 -4 2 -8 7 -8 12 0 7 -192 283 -225 323 -8 9 -15 21 -15 26 0 4 -9 16
-20 26 -11 10 -20 24 -20 31 0 7 -4 14 -8 16 -4 2 -37 45 -72 97 -36 51 -73
102 -82 112 -10 11 -18 23 -18 27 0 5 -8 17 -18 28 -10 10 -41 55 -70 99 -73
113 -80 121 -152 195 -124 126 -231 206 -373 278 -97 49 -204 94 -235 98 -7 1
-36 9 -65 17 -118 34 -202 44 -366 44 -91 0 -177 -2 -191 -4z m250 -798 c103
-4 276 -87 354 -170 44 -47 86 -103 86 -114 0 -6 4 -11 9 -11 12 0 68 -143 82
-209 27 -128 -4 -297 -77 -420 -33 -57 -125 -155 -179 -192 -247 -166 -575
-139 -780 66 -90 89 -143 183 -172 300 -17 73 -9 256 14 315 3 8 7 20 8 26 3
14 52 114 67 139 7 11 33 42 57 70 102 118 253 191 415 201 32 2 61 5 64 8 2
3 10 2 16 -1 6 -4 22 -8 36 -8z m-1305 -1332 c66 -124 285 -362 384 -417 9 -5
18 -12 21 -16 12 -16 128 -83 208 -120 48 -22 95 -45 104 -50 10 -6 25 -10 33
-10 8 0 23 -4 33 -9 25 -13 92 -31 192 -50 161 -32 398 -32 525 0 22 5 53 12
69 14 112 17 412 153 499 226 7 5 37 28 67 52 55 42 165 149 209 203 13 16 48
67 79 114 30 47 58 89 62 93 4 5 20 -12 36 -37 16 -25 32 -46 37 -46 4 0 7 -5
7 -12 0 -6 7 -18 15 -27 9 -9 47 -61 86 -116 38 -55 76 -108 84 -117 8 -10 27
-37 42 -60 15 -24 30 -45 33 -48 3 -3 17 -21 30 -40 14 -19 28 -39 32 -45 5
-5 36 -48 69 -95 33 -47 67 -94 75 -105 29 -42 186 -261 202 -284 9 -13 31
-42 47 -65 44 -60 176 -245 204 -286 13 -19 26 -37 30 -40 3 -3 11 -12 16 -22
17 -28 179 -252 192 -266 7 -7 13 -15 13 -17 0 -3 -67 -24 -90 -28 -3 0 -41
-16 -84 -34 -68 -28 -110 -51 -231 -126 -28 -17 -135 -107 -165 -138 -86 -90
-170 -198 -170 -218 0 -5 -3 -11 -7 -13 -13 -5 -53 -83 -89 -171 -19 -47 -38
-81 -45 -79 -27 7 -149 7 -149 0 0 -4 -6 -5 -14 -2 -21 8 -146 10 -146 2 0 -3
-12 -3 -27 1 -16 4 -40 4 -55 0 -14 -4 -29 -5 -32 -2 -7 8 -133 6 -145 -1 -5
-4 -12 -3 -15 2 -3 4 -30 5 -60 2 -31 -3 -56 -3 -56 0 0 6 -88 3 -107 -4 -7
-3 -14 -2 -17 3 -3 4 -30 4 -60 1 -31 -3 -56 -4 -56 -1 0 4 -38 6 -85 6 -47 0
-85 -3 -85 -7 0 -4 -6 -5 -14 -2 -21 8 -146 10 -146 2 0 -3 -12 -3 -27 1 -16
4 -40 4 -55 0 -14 -4 -29 -5 -32 -2 -7 8 -133 6 -145 -1 -5 -4 -12 -3 -15 2
-3 4 -30 5 -60 2 -31 -3 -56 -3 -56 0 0 3 -19 5 -42 3 l-43 -2 -1 97 c-1 100
-9 218 -19 262 -3 14 -7 39 -9 55 -2 17 -7 37 -10 45 -3 8 -7 26 -10 40 -5 30
-56 191 -64 205 -4 6 -7 15 -8 20 -4 23 -80 175 -122 245 -84 139 -141 210
-278 345 -148 145 -270 232 -450 321 -86 42 -260 107 -322 119 -15 3 -38 8
-52 11 -14 3 -32 7 -40 9 -8 2 -15 4 -15 5 0 1 -22 4 -50 7 -27 2 -66 8 -85
12 -19 4 -54 7 -77 6 -24 0 -43 2 -43 6 0 4 57 88 128 186 70 98 138 195 152
216 14 20 28 37 33 37 4 0 7 6 7 14 0 8 3 16 8 18 4 2 23 26 42 53 19 28 39
55 45 62 5 6 30 41 55 77 25 36 47 65 50 66 3 0 14 -17 25 -37z m-455 -1507
c14 -4 41 -9 60 -12 19 -3 42 -10 50 -14 8 -4 18 -8 23 -8 16 -1 103 -36 117
-48 8 -6 25 -15 38 -19 51 -15 272 -205 272 -233 0 -5 7 -15 15 -22 24 -20 78
-117 110 -195 44 -109 62 -216 60 -347 -2 -104 -5 -128 -19 -197 -18 -86 -80
-225 -137 -308 -67 -97 -264 -273 -306 -273 -7 0 -13 -4 -13 -9 0 -5 -8 -11
-17 -14 -10 -3 -47 -17 -81 -32 -61 -25 -76 -30 -132 -41 -14 -3 -33 -7 -43
-10 -15 -5 -175 -17 -202 -15 -39 2 -91 10 -133 21 -27 6 -57 12 -66 14 -8 1
-19 5 -22 9 -4 4 -14 7 -22 7 -8 0 -49 16 -91 36 -263 126 -447 371 -507 674
-9 47 -10 223 -1 286 44 314 280 594 602 711 26 10 47 16 105 30 8 2 35 6 60
9 25 4 46 8 48 9 6 5 205 -3 232 -9z m4600 -943 c19 -3 37 -7 40 -7 3 -1 31
-14 64 -30 177 -87 273 -293 222 -481 -13 -50 -50 -138 -66 -159 -54 -69 -170
-172 -170 -150 0 3 -7 1 -15 -6 -36 -30 -176 -44 -265 -27 -107 21 -204 89
-271 192 -111 168 -97 390 34 527 78 81 168 132 258 143 23 3 44 7 47 9 5 5
70 -1 122 -11z"/>
</g>
</svg>
